# xmcd
#
# Track frame offsets:
#	150
#	15066
#	29018
#	44281
#	56752
#	68314
#	82556
#	95736
#	107784
#	120741
#	136306
#
# Disc length: 2022 seconds
#
# Revision: 1
# Processed by: cddbd v1.5.1PL0 Copyright (c) Steve Scherf et al.
# Submitted via: audiograbber 1.81.02
#
DISCID=8107e40b
DTITLE=TIBAGY and MILTINHO - TIBAGY and MILTINHO
DYEAR=1965
DGENRE=SERTANEJO
TTITLE0=PRANTO AMARGO
TTITLE1=TUA CULPA
TTITLE2=NOITE TRISTE
TTITLE3=CAPRICHO DA VIDA
TTITLE4=TRISTE CAMINHO
TTITLE5=SEM TEU AMOR
TTITLE6=SONHO DE AMOR
TTITLE7=TAÇA DA SAUDADE
TTITLE8=AMARGURA
TTITLE9=FOI UM SONHO
TTITLE10=BOÊMIO DA RUA
EXTD=
EXTT0=
EXTT1=
EXTT2=
EXTT3=
EXTT4=
EXTT5=
EXTT6=
EXTT7=
EXTT8=
EXTT9=
EXTT10=
PLAYORDER=
